<svg width="49" height="25" viewBox="0 0 49 25" fill="none" xmlns="http://www.w3.org/2000/svg">
    <symbol id='logo' stroke='currentColor' fill='currentColor'>
        <path d="M0.660511 9V0.272727H2.76989V7.28693H6.40057V9H0.660511ZM10.5522 9.12358C9.86754 9.12358 9.27663 8.98864 8.77947 8.71875C8.28516 8.44602 7.90447 8.05824 7.63743 7.5554C7.37322 7.04972 7.24112 6.44886 7.24112 5.75284C7.24112 5.0767 7.37464 4.4858 7.64169 3.98011C7.90874 3.47159 8.28516 3.0767 8.77095 2.79545C9.25675 2.51136 9.82919 2.36932 10.4883 2.36932C10.9542 2.36932 11.3803 2.44176 11.7667 2.58665C12.1531 2.73153 12.4869 2.94602 12.7681 3.23011C13.0494 3.5142 13.2681 3.86506 13.4244 4.28267C13.5806 4.69744 13.6587 5.1733 13.6587 5.71023V6.23011H7.96982V5.01989H11.7198C11.717 4.7983 11.6644 4.60085 11.5621 4.42756C11.4599 4.25426 11.3192 4.11932 11.1403 4.02273C10.9641 3.9233 10.761 3.87358 10.5309 3.87358C10.2979 3.87358 10.0891 3.92614 9.90447 4.03125C9.71982 4.13352 9.57351 4.27415 9.46555 4.45312C9.3576 4.62926 9.30078 4.82955 9.2951 5.05398V6.28551C9.2951 6.55256 9.34766 6.78693 9.45277 6.98864C9.55788 7.1875 9.70703 7.34233 9.90021 7.45312C10.0934 7.56392 10.3235 7.61932 10.5906 7.61932C10.7752 7.61932 10.9428 7.59375 11.0934 7.54261C11.244 7.49148 11.3732 7.41619 11.4812 7.31676C11.5891 7.21733 11.6701 7.09517 11.7241 6.95028L13.6374 7.00568C13.5579 7.43466 13.3832 7.80824 13.1133 8.12642C12.8462 8.44176 12.4954 8.6875 12.0607 8.86364C11.6261 9.03693 11.1232 9.12358 10.5522 9.12358ZM18.4176 2.45455V3.98864H14.2884V2.45455H18.4176ZM15.1534 0.886364H17.2372V6.94176C17.2372 7.0696 17.2571 7.1733 17.2969 7.25284C17.3395 7.32955 17.4006 7.38494 17.4801 7.41903C17.5597 7.45028 17.6548 7.46591 17.7656 7.46591C17.8452 7.46591 17.929 7.45881 18.017 7.4446C18.108 7.42756 18.1761 7.41335 18.2216 7.40199L18.5369 8.90625C18.4375 8.93466 18.2969 8.97017 18.1151 9.01278C17.9361 9.0554 17.7216 9.08239 17.4716 9.09375C16.983 9.11648 16.5639 9.05966 16.2145 8.9233C15.8679 8.78409 15.6023 8.56818 15.4176 8.27557C15.2358 7.98295 15.1477 7.61506 15.1534 7.17188V0.886364ZM21.4847 0.272727V1.24432C21.4847 1.5142 21.4308 1.78693 21.3228 2.0625C21.2177 2.33523 21.0799 2.59091 20.9094 2.82955C20.739 3.06818 20.5586 3.26989 20.3683 3.43466L19.4819 2.94886C19.6126 2.73295 19.729 2.49006 19.8313 2.22017C19.9336 1.94744 19.9847 1.62358 19.9847 1.24858V0.272727H21.4847ZM27.5859 4.45312L25.6726 4.50426C25.6527 4.3679 25.5987 4.24716 25.5107 4.14205C25.4226 4.03409 25.3075 3.95028 25.1655 3.89062C25.0263 3.82812 24.8643 3.79688 24.6797 3.79688C24.4382 3.79688 24.2322 3.84517 24.0618 3.94176C23.8942 4.03835 23.8118 4.16903 23.8146 4.33381C23.8118 4.46165 23.8629 4.57244 23.968 4.66619C24.076 4.75994 24.2678 4.83523 24.5433 4.89205L25.8047 5.13068C26.4581 5.25568 26.9439 5.46307 27.2621 5.75284C27.5831 6.04261 27.745 6.42614 27.7479 6.90341C27.745 7.35227 27.6115 7.7429 27.3473 8.07528C27.0859 8.40767 26.728 8.66619 26.2734 8.85085C25.8189 9.03267 25.299 9.12358 24.7138 9.12358C23.7791 9.12358 23.0419 8.93182 22.5021 8.5483C21.9652 8.16193 21.6584 7.64489 21.5817 6.99716L23.6399 6.94602C23.6854 7.18466 23.8033 7.36648 23.9936 7.49148C24.1839 7.61648 24.4268 7.67898 24.7223 7.67898C24.9893 7.67898 25.2067 7.62926 25.3743 7.52983C25.5419 7.4304 25.6271 7.2983 25.63 7.13352C25.6271 6.9858 25.5618 6.8679 25.4339 6.77983C25.3061 6.68892 25.1058 6.6179 24.8331 6.56676L23.6911 6.34943C23.0348 6.23011 22.5462 6.00994 22.2251 5.68892C21.9041 5.36506 21.745 4.95312 21.7479 4.45312C21.745 4.01562 21.8615 3.64205 22.0973 3.33239C22.3331 3.01989 22.6683 2.78125 23.103 2.61648C23.5376 2.4517 24.0504 2.36932 24.6413 2.36932C25.5277 2.36932 26.2266 2.5554 26.7379 2.92756C27.2493 3.29687 27.532 3.8054 27.5859 4.45312ZM38.9925 24V17.4545H41.0763V24H38.9925ZM40.0366 16.6918C39.744 16.6918 39.4925 16.5952 39.2823 16.402C39.0721 16.206 38.967 15.9702 38.967 15.6946C38.967 15.4219 39.0721 15.1889 39.2823 14.9957C39.4925 14.7997 39.744 14.7017 40.0366 14.7017C40.332 14.7017 40.5835 14.7997 40.7908 14.9957C41.0011 15.1889 41.1062 15.4219 41.1062 15.6946C41.1062 15.9702 41.0011 16.206 40.7908 16.402C40.5835 16.5952 40.332 16.6918 40.0366 16.6918ZM45.4624 24.1236C44.7777 24.1236 44.1868 23.9886 43.6896 23.7188C43.1953 23.446 42.8146 23.0582 42.5476 22.5554C42.2834 22.0497 42.1513 21.4489 42.1513 20.7528C42.1513 20.0767 42.2848 19.4858 42.5518 18.9801C42.8189 18.4716 43.1953 18.0767 43.6811 17.7955C44.1669 17.5114 44.7393 17.3693 45.3984 17.3693C45.8643 17.3693 46.2905 17.4418 46.6768 17.5866C47.0632 17.7315 47.397 17.946 47.6783 18.2301C47.9595 18.5142 48.1783 18.8651 48.3345 19.2827C48.4908 19.6974 48.5689 20.1733 48.5689 20.7102V21.2301H42.88V20.0199H46.63C46.6271 19.7983 46.5746 19.6009 46.4723 19.4276C46.37 19.2543 46.2294 19.1193 46.0504 19.0227C45.8743 18.9233 45.6712 18.8736 45.4411 18.8736C45.2081 18.8736 44.9993 18.9261 44.8146 19.0312C44.63 19.1335 44.4837 19.2741 44.3757 19.4531C44.2678 19.6293 44.2109 19.8295 44.2053 20.054V21.2855C44.2053 21.5526 44.2578 21.7869 44.3629 21.9886C44.468 22.1875 44.6172 22.3423 44.8104 22.4531C45.0036 22.5639 45.2337 22.6193 45.5007 22.6193C45.6854 22.6193 45.853 22.5937 46.0036 22.5426C46.1541 22.4915 46.2834 22.4162 46.3913 22.3168C46.4993 22.2173 46.5803 22.0952 46.6342 21.9503L48.5476 22.0057C48.468 22.4347 48.2933 22.8082 48.0234 23.1264C47.7564 23.4418 47.4055 23.6875 46.9709 23.8636C46.5362 24.0369 46.0334 24.1236 45.4624 24.1236Z" fill="white"/>
        <path d="M13.5511 15.2727H16.1634L18.3793 20.6761H18.4815L20.6974 15.2727H23.3097V24H21.2557V18.6392H21.1832L19.0866 23.9446H17.7741L15.6776 18.6094H15.6051V24H13.5511V15.2727ZM27.6808 24.1236C26.9933 24.1236 26.4023 23.983 25.908 23.7017C25.4165 23.4176 25.0373 23.0227 24.7702 22.517C24.506 22.0085 24.3739 21.419 24.3739 20.7486C24.3739 20.0753 24.506 19.4858 24.7702 18.9801C25.0373 18.4716 25.4165 18.0767 25.908 17.7955C26.4023 17.5114 26.9933 17.3693 27.6808 17.3693C28.3683 17.3693 28.9577 17.5114 29.4492 17.7955C29.9435 18.0767 30.3228 18.4716 30.587 18.9801C30.854 19.4858 30.9876 20.0753 30.9876 20.7486C30.9876 21.419 30.854 22.0085 30.587 22.517C30.3228 23.0227 29.9435 23.4176 29.4492 23.7017C28.9577 23.983 28.3683 24.1236 27.6808 24.1236ZM27.6935 22.5511C27.9435 22.5511 28.1552 22.4744 28.3285 22.321C28.5018 22.1676 28.6339 21.9545 28.7248 21.6818C28.8185 21.4091 28.8654 21.0937 28.8654 20.7358C28.8654 20.3722 28.8185 20.054 28.7248 19.7812C28.6339 19.5085 28.5018 19.2955 28.3285 19.142C28.1552 18.9886 27.9435 18.9119 27.6935 18.9119C27.435 18.9119 27.2163 18.9886 27.0373 19.142C26.8612 19.2955 26.7262 19.5085 26.6325 19.7812C26.5415 20.054 26.4961 20.3722 26.4961 20.7358C26.4961 21.0937 26.5415 21.4091 26.6325 21.6818C26.7262 21.9545 26.8612 22.1676 27.0373 22.321C27.2163 22.4744 27.435 22.5511 27.6935 22.5511ZM38.1935 17.4545L35.9478 24H33.5614L31.32 17.4545H33.5146L34.7205 21.9631H34.7887L35.9989 17.4545H38.1935Z" fill="#FF5F5F"/>
    </symbol>
</svg>
